<?xml version="1.0" encoding="iso-8859-1"?>
<!-- Generator: Adobe Illustrator 19.0.0, SVG Export Plug-In . SVG Version: 6.00 Build 0)  -->
<svg version="1.1" id="Layer_1" xmlns="http://www.w3.org/2000/svg" xmlns:xlink="http://www.w3.org/1999/xlink" x="0px" y="0px"
	 viewBox="0 0 330 330" style="enable-background:new 0 0 330 330;" xml:space="preserve">
<path id="XMLID_516_" d="M315,150.013h-5V92.193c0-8.284-6.716-15-15-15c-8.284,0-15,6.716-15,15v23.806
	c-7.507-3.844-15.999-6.028-24.996-6.028c-0.251,0-0.501,0.006-0.751,0.019L240,110.705V35c0-8.284-6.716-15-15-15h-80
	c-8.284,0-15,6.716-15,15v81.221l-65.965,3.308l-5.618-11.236C55.875,103.21,50.682,100,45,100H15c-8.284,0-15,6.716-15,15v100
	c0,8.284,6.716,15,15,15h30c5.493,0,10.546-3.002,13.173-7.826l6.382-11.718L130,213.762V295c0,8.284,6.716,15,15,15h80
	c8.284,0,15-6.716,15-15v-75.684l14.247,0.72c0.252,0.013,0.504,0.019,0.757,0.019c8.998,0,17.489-2.184,24.996-6.028v23.805
	c0,8.284,6.716,15,15,15c8.284,0,15-6.716,15-15v-57.818h5c8.284,0,15-6.716,15-15C330,156.729,323.284,150.013,315,150.013z
	 M56.649,180.019c-5.762-0.288-11.172,2.744-13.929,7.807L36.089,200H30v-70h5.729l5.854,11.708
	c2.662,5.324,8.216,8.574,14.168,8.273L130,146.258v37.465L56.649,180.019z M210,280h-50V50h50V280z M255.339,190.052L240,189.277
	v-48.536l15.337-0.769c13.171,0.173,23.918,10.565,24.663,23.592v2.892C279.254,179.485,268.508,189.878,255.339,190.052z"/>
<g>
</g>
<g>
</g>
<g>
</g>
<g>
</g>
<g>
</g>
<g>
</g>
<g>
</g>
<g>
</g>
<g>
</g>
<g>
</g>
<g>
</g>
<g>
</g>
<g>
</g>
<g>
</g>
<g>
</g>
</svg>
