<svg width="25" height="14" viewBox="0 0 25 14" fill="none" xmlns="http://www.w3.org/2000/svg">
<g clip-path="url(#clip0_259_1631)">
<path d="M24.9674 8.53125C25.0543 9.28229 24.9747 10.006 24.7287 10.7023C24.4828 11.3987 24.1247 11.9948 23.6545 12.4906C23.1843 12.9865 22.611 13.3729 21.9347 13.65C21.2583 13.9271 20.5476 14.0401 19.8025 13.9891C18.6379 13.9089 17.627 13.4531 16.7697 12.6219C15.9125 11.7906 15.4261 10.7917 15.3103 9.625C15.2235 8.81562 15.323 8.04818 15.6087 7.32266C15.8945 6.59713 16.3231 5.97552 16.8945 5.45781L16.1241 4.2875C15.4297 4.87083 14.8835 5.57812 14.4857 6.40937C14.0878 7.24062 13.8889 8.13021 13.8889 9.07812C13.8889 9.275 13.822 9.44453 13.6882 9.58672C13.5543 9.72891 13.3898 9.8 13.1944 9.8H9.66797C9.50159 10.9958 8.96267 11.9948 8.05122 12.7969C7.13976 13.599 6.07639 14 4.86111 14C3.52286 14 2.37811 13.5206 1.42687 12.5617C0.475622 11.6029 0 10.449 0 9.1C0 7.75104 0.475622 6.59713 1.42687 5.63828C2.37811 4.67943 3.52286 4.2 4.86111 4.2C5.41088 4.2 5.96065 4.29844 6.51042 4.49531L6.77083 4.00312C5.88108 3.20104 4.78154 2.8 3.47222 2.8H2.77778C2.5897 2.8 2.42694 2.73073 2.2895 2.59219C2.15205 2.45365 2.08333 2.28958 2.08333 2.1C2.08333 1.91042 2.15205 1.74635 2.2895 1.60781C2.42694 1.46927 2.5897 1.4 2.77778 1.4H4.16667C4.7309 1.4 5.25535 1.44922 5.74002 1.54766C6.22468 1.64609 6.64605 1.78646 7.00412 1.96875C7.3622 2.15104 7.6208 2.29505 7.77995 2.40078C7.93909 2.50651 8.12355 2.63958 8.33333 2.8H15.1367L14.2144 1.4H11.8056C11.5885 1.4 11.4113 1.31797 11.2739 1.15391C11.1364 0.989844 11.0858 0.798437 11.122 0.579687C11.1509 0.411979 11.2341 0.273437 11.3715 0.164062C11.509 0.0546875 11.6645 0 11.8381 0H14.5833C14.822 0 15.0137 0.102083 15.1584 0.30625L15.918 1.45469L17.1549 0.207812C17.2924 0.0692708 17.4588 0 17.6541 0H18.75C18.9381 0 19.1008 0.0692708 19.2383 0.207812C19.3757 0.346354 19.4444 0.510417 19.4444 0.7V2.1C19.4444 2.28958 19.3757 2.45365 19.2383 2.59219C19.1008 2.73073 18.9381 2.8 18.75 2.8H16.8077L18.0556 4.68125C19.0032 4.22187 19.9978 4.09062 21.0395 4.2875C22.0739 4.47708 22.9565 4.96745 23.6871 5.75859C24.4177 6.54974 24.8445 7.47396 24.9674 8.53125ZM4.86111 12.6C5.693 12.6 6.42723 12.3357 7.0638 11.807C7.70038 11.2784 8.10185 10.6094 8.26823 9.8H4.86111C4.60793 9.8 4.409 9.68698 4.26432 9.46094C4.13411 9.2276 4.1305 8.99792 4.25347 8.77187L5.84852 5.74219C5.50854 5.6474 5.1794 5.6 4.86111 5.6C3.90625 5.6 3.08883 5.94271 2.40885 6.62812C1.72888 7.31354 1.38889 8.1375 1.38889 9.1C1.38889 10.0625 1.72888 10.8865 2.40885 11.5719C3.08883 12.2573 3.90625 12.6 4.86111 12.6ZM20.1389 12.6C21.0938 12.6 21.9112 12.2573 22.5911 11.5719C23.2711 10.8865 23.6111 10.0625 23.6111 9.1C23.6111 8.1375 23.2711 7.31354 22.5911 6.62812C21.9112 5.94271 21.0938 5.6 20.1389 5.6C19.7049 5.6 19.2672 5.6875 18.826 5.8625L20.714 8.70625C20.8225 8.87396 20.8587 9.0526 20.8225 9.24219C20.7863 9.43177 20.6887 9.5776 20.5295 9.67969C20.421 9.75989 20.2908 9.8 20.1389 9.8C19.8857 9.8 19.694 9.69427 19.5638 9.48281L17.6758 6.63906C17.003 7.33177 16.6667 8.15208 16.6667 9.1C16.6667 10.0625 17.0067 10.8865 17.6866 11.5719C18.3666 12.2573 19.184 12.6 20.1389 12.6Z" fill="#757575"/>
</g>
<defs>
<clipPath id="clip0_259_1631">
<rect width="25" height="14" fill="white"/>
</clipPath>
</defs>
</svg>
