<svg width="24" height="24" viewBox="0 0 24 24" fill="none" xmlns="http://www.w3.org/2000/svg">
<path fill-rule="evenodd" clip-rule="evenodd" d="M11.9992 3C10.7592 2.99876 9.56304 3.45828 8.64284 4.28938C7.72264 5.12047 7.14408 6.26383 7.01947 7.49751C6.89485 8.73118 7.23308 9.96715 7.96849 10.9655C8.7039 11.9638 9.78402 12.6533 10.9992 12.9V15H7.99918V17H10.9992V21H12.9992V17H15.9992V15H12.9992V12.9C14.2105 12.6491 15.2859 11.9582 16.0177 10.9607C16.7494 9.9633 17.0856 8.73009 16.9613 7.49929C16.8369 6.26848 16.2609 5.12741 15.3445 4.29645C14.4281 3.4655 13.2362 3.00361 11.9992 3V3ZM8.99918 8C8.99918 8.79565 9.31525 9.55871 9.87786 10.1213C10.4405 10.6839 11.2035 11 11.9992 11C12.7948 11 13.5579 10.6839 14.1205 10.1213C14.6831 9.55871 14.9992 8.79565 14.9992 8C14.9992 7.20435 14.6831 6.44129 14.1205 5.87868C13.5579 5.31607 12.7948 5 11.9992 5C11.2035 5 10.4405 5.31607 9.87786 5.87868C9.31525 6.44129 8.99918 7.20435 8.99918 8V8Z" fill="#757575"/>
</svg>
