<svg width="24" height="24" viewBox="0 0 24 24" fill="none" xmlns="http://www.w3.org/2000/svg">
<path d="M2.19949 11.2004C1.99949 13.6004 2.69949 15.6004 4.19949 17.4004C5.69949 19.2004 7.69949 20.0004 10.0995 20.0004H20.0995C20.5995 20.0004 21.0995 19.8004 21.4995 19.4004C21.8995 19.0004 22.0995 18.5004 22.0995 18.0004V17.2004C22.0995 16.6004 21.9995 15.9004 21.8995 15.0004H13.6995C12.6995 15.0004 11.8995 14.6004 11.1995 13.9004C10.4995 13.2004 10.0995 12.3004 10.0995 11.4004C10.0995 9.80041 10.7995 8.70041 12.2995 8.10041L17.0995 6.00041C15.3995 4.80041 13.3995 4.10041 11.0995 4.00041C8.89949 3.80041 6.89949 4.50041 5.09949 5.90041C3.29949 7.30041 2.39949 9.00041 2.19949 11.2004ZM12.0995 11.4004C12.0995 11.8004 12.2995 12.2004 12.5995 12.5004C12.8995 12.8004 13.2995 13.0004 13.6995 13.0004H21.4995C20.8995 10.8004 19.9995 9.00041 18.6995 7.60041L13.0995 9.90041C12.3995 10.1004 12.0995 10.6004 12.0995 11.4004V11.4004Z" fill="#757575"/>
</svg>
