<svg width="28" height="28" viewBox="0 0 28 28" fill="none" xmlns="http://www.w3.org/2000/svg">
<path d="M25.6665 20.7085C25.6665 21.4047 25.3899 22.0724 24.8977 22.5647C24.4054 23.0569 23.7377 23.3335 23.0415 23.3335L4.95817 23.3335C4.26198 23.3335 3.5943 23.0569 3.10202 22.5647C2.60973 22.0724 2.33317 21.4047 2.33317 20.7085L2.33317 11.9585C2.33314 11.2665 2.60634 10.6025 3.09333 10.1109C3.58033 9.61936 4.24173 9.33995 4.93367 9.3335L6.707 9.3335C6.93907 9.3335 7.16163 9.42568 7.32572 9.58978C7.48982 9.75387 7.582 9.97643 7.582 10.2085C7.582 10.737 7.7255 11.0707 7.911 11.3005C8.10584 11.5432 8.40684 11.7438 8.8315 11.8967C9.71234 12.2152 10.8732 12.249 11.9582 12.249C12.18 12.249 12.3935 12.3332 12.5555 12.4847L12.762 12.6772C12.8325 12.7399 12.8999 12.8061 12.9638 12.8755C13.0455 12.9618 13.2963 13.2255 14.3265 14.2557C14.8737 14.8028 15.3357 15.105 15.6892 15.2042C15.8116 15.2443 15.9426 15.2507 16.0683 15.2228C16.2134 15.1789 16.3437 15.0962 16.4452 14.9837C16.5573 14.8825 16.6396 14.7526 16.6832 14.608C16.7111 14.4826 16.7046 14.352 16.6645 14.23C16.5653 13.8777 16.2608 13.4157 15.7137 12.8685C15.0837 12.2385 14.4933 11.64 13.9637 11.1045C13.0863 10.2178 12.377 9.50266 11.9453 9.09783C11.777 8.93922 11.6784 8.72042 11.6709 8.48927C11.6634 8.25812 11.7478 8.03342 11.9055 7.86429C12.0632 7.69515 12.2815 7.59533 12.5126 7.58666C12.7437 7.57798 12.9689 7.66116 13.1388 7.81799C13.6582 8.31461 14.1693 8.81984 14.6718 9.33349L18.5965 9.33349L15.2808 6.01899C14.7885 5.52666 14.1212 5.24899 13.4258 5.24899L3.20817 5.24899C2.97611 5.24899 2.75354 5.15681 2.58945 4.99271C2.42536 4.82862 2.33317 4.60606 2.33317 4.37399C2.33317 4.14193 2.42536 3.91937 2.58945 3.75527C2.75354 3.59118 2.97611 3.49899 3.20817 3.49899L13.4247 3.49899C13.9993 3.49904 14.5683 3.6123 15.0992 3.83229C15.6301 4.05229 16.1124 4.37472 16.5187 4.78116L21.071 9.33349L23.0427 9.33349C23.7387 9.3338 24.406 9.6105 24.8981 10.1028C25.3901 10.595 25.6665 11.2625 25.6665 11.9585L25.6665 20.7085ZM6.54717 12.3972C6.24027 12.0136 6.02697 11.5638 5.92417 11.0835L5.83317 11.0835L5.83317 11.9585C5.83317 12.1906 5.74098 12.4131 5.57689 12.5772C5.4128 12.7413 5.19023 12.8335 4.95817 12.8335L4.08317 12.8335L4.08317 14.5835L4.95817 14.5835C6 14.5835 6.90067 13.9757 7.32417 13.0948C7.0395 12.9082 6.7735 12.6795 6.54717 12.3972ZM11.6128 13.9978C11.3177 13.9955 10.9992 13.9897 10.6678 13.9722C10.2831 14.5154 10.0369 15.1445 9.95088 15.8046C9.86484 16.4648 9.94151 17.1359 10.1742 17.7596C10.4069 18.3834 10.7886 18.9407 11.2859 19.3832C11.7833 19.8257 12.3813 20.1398 13.0279 20.2983C13.6745 20.4568 14.35 20.4548 14.9956 20.2924C15.6413 20.1301 16.2374 19.8124 16.7321 19.367C17.2269 18.9215 17.6052 18.3619 17.8342 17.7368C18.0631 17.1117 18.1358 16.4401 18.0458 15.7805C17.942 15.9357 17.8207 16.0838 17.6818 16.2215C17.3412 16.5622 16.9468 16.8048 16.5035 16.918C16.0602 17.0312 15.6238 17.0043 15.2155 16.8888C14.4303 16.6683 13.7093 16.113 13.0887 15.4923C12.6084 15.0179 12.1343 14.5371 11.6665 14.0503L11.663 14.0457L11.6175 14.0025L11.6128 13.9978ZM23.9165 19.8335L23.9165 18.0835L23.0415 18.0835C22.3453 18.0835 21.6776 18.3601 21.1853 18.8523C20.6931 19.3446 20.4165 20.0123 20.4165 20.7085L20.4165 21.5835L22.1665 21.5835L22.1665 20.7085C22.1665 20.4764 22.2587 20.2539 22.4228 20.0898C22.5869 19.9257 22.8094 19.8335 23.0415 19.8335L23.9165 19.8335ZM23.9165 14.5835L23.9165 12.8335L23.0415 12.8335C22.5585 12.8335 22.1665 12.4415 22.1665 11.9585L22.1665 11.0835L20.4165 11.0835L20.4165 11.9585C20.4165 12.6547 20.6931 13.3224 21.1853 13.8146C21.6776 14.3069 22.3453 14.5835 23.0415 14.5835L23.9165 14.5835ZM4.08317 18.0835L4.08317 19.8335L4.95817 19.8335C5.19023 19.8335 5.4128 19.9257 5.57689 20.0898C5.74098 20.2539 5.83317 20.4764 5.83317 20.7085L5.83317 21.5835L7.58317 21.5835L7.58317 20.7085C7.58317 20.0123 7.30661 19.3446 6.81433 18.8523C6.32204 18.3601 5.65436 18.0835 4.95817 18.0835L4.08317 18.0835Z" fill="#555555"/>
</svg>
