<svg width="20" height="20" viewBox="0 0 20 20" fill="none" xmlns="http://www.w3.org/2000/svg">
<path d="M10.2008 3.28028C13.7308 3.28028 16.6308 5.89028 17.1208 9.28028H19.2008L15.7008 13.2803L12.2008 9.28028H14.5208C14.2971 8.30138 13.7481 7.42726 12.9634 6.80065C12.1788 6.17403 11.2049 5.83196 10.2008 5.83028C8.75078 5.83028 7.47078 6.54028 6.66078 7.61028L4.95078 5.66028C5.60529 4.91183 6.41246 4.3122 7.31802 3.90168C8.22357 3.49116 9.20652 3.27928 10.2008 3.28028V3.28028ZM9.80078 16.7203C6.28078 16.7203 3.37078 14.1103 2.88078 10.7203H0.800781L4.30078 6.72028C5.47078 8.05028 6.63078 9.39028 7.80078 10.7203H5.48078C5.7045 11.6992 6.2535 12.5733 7.03812 13.1999C7.82275 13.8265 8.79665 14.1686 9.80078 14.1703C11.2508 14.1703 12.5308 13.4603 13.3408 12.3903L15.0508 14.3403C14.3969 15.0895 13.5899 15.6896 12.6842 16.1002C11.7785 16.5108 10.7952 16.7223 9.80078 16.7203V16.7203Z" fill="#757575"/>
</svg>
